# xmcd CD database file
#
# Track frame offsets:
#	150
#	46492
#	68800
#	110742
#	133990
#	162762
#	171707
#	191225
#	206225
#	223060
#	248307
#
# Disc length: 3689 seconds
#
# Revision: 0
# Processed by: cddbd v1.4PL0 Copyright (c) Steve Scherf et al.
# Submitted via: CDex 1.50Beta7
#
DISCID=b10e670b
DTITLE=KAORU INOUE - Shibuya Jazz Classics
DYEAR=2003
DGENRE=Jazz
TTITLE0=Down To The Sea
TTITLE1=Amazon
TTITLE2=The Positive And The Negative
TTITLE3=A Billion Year's Memory
TTITLE4=Jinku
TTITLE5=My Favorite Things
TTITLE6=Upa Neguinho
TTITLE7=Toccata And Fugue In D Minor
TTITLE8=Vento Vigoroso
TTITLE9=Sambafrique
TTITLE10=Lament
EXTD=YEAR: 2003
EXTT0=
EXTT1=
EXTT2=
EXTT3=
EXTT4=
EXTT5=
EXTT6=
EXTT7=
EXTT8=
EXTT9=
EXTT10=
PLAYORDER=
